<svg width="9" height="18" viewBox="0 0 9 18" fill="none" xmlns="http://www.w3.org/2000/svg">
<path opacity="0.297387" fill-rule="evenodd" clip-rule="evenodd" d="M7.02969 2.07036H6.30251V0.835859C6.30251 0.659503 6.15847 0.536194 5.99686 0.536194H2.77729C2.59741 0.536194 2.47163 0.677417 2.47163 0.835859V2.07036H1.74446C0.93498 2.07036 0.287109 2.70552 0.287109 3.49913V15.8441C0.287109 16.6377 0.952536 17.2729 1.74446 17.2729H7.02976C7.83924 17.2729 8.48711 16.6377 8.48711 15.8441V3.49913C8.48641 2.70484 7.83917 2.07036 7.02969 2.07036Z" fill="white"/>
<path fill-rule="evenodd" clip-rule="evenodd" d="M0.287109 7.49915V15.8441C0.287109 16.6377 0.952536 17.2729 1.74446 17.2729H7.02976C7.83924 17.2729 8.48711 16.6377 8.48711 15.8441V7.49915H0.287109Z" fill="white"/>
</svg>
