<svg width="17" height="18" viewBox="0 0 17 18" fill="none" xmlns="http://www.w3.org/2000/svg">
<path fill-rule="evenodd" clip-rule="evenodd" d="M12.4003 4.69959C12.4003 2.10392 10.2962 0 7.70032 0C5.10449 0 3.00032 2.10392 3.00032 4.69959C3.00032 7.29532 5.10456 9.4 7.70032 9.4C10.2961 9.4 12.4003 7.29532 12.4003 4.69959ZM10.0003 4.69959C10.0003 5.96995 8.97048 7 7.70032 7C6.43016 7 5.40032 5.96995 5.40032 4.69959C5.40032 3.42947 6.42991 2.4 7.70032 2.4C8.97073 2.4 10.0003 3.42947 10.0003 4.69959ZM8.19949 10C11.9727 10 15.2721 12.3944 16.3461 15.8432C16.5431 16.476 16.1899 17.1487 15.5571 17.3457C14.9243 17.5428 14.2516 17.1896 14.0546 16.5568C13.2949 14.1173 10.9285 12.4 8.19949 12.4C5.47173 12.4 3.10616 14.1155 2.34587 16.5526C2.14851 17.1853 1.47563 17.5382 0.842959 17.3408C0.210287 17.1434 -0.142598 16.4706 0.0547669 15.8379C1.12977 12.3919 4.42809 10 8.19949 10Z" fill="white"/>
</svg>
