<svg width="22" height="19" viewBox="0 0 22 19" fill="none" xmlns="http://www.w3.org/2000/svg">
<path fill-rule="evenodd" clip-rule="evenodd" d="M9.28666 2.4H4.2794C3.27654 2.4 2.4417 3.20589 2.40151 4.18895H17.6308C19.704 4.18895 21.4 5.87736 21.4 7.94637V14.6426C21.4 16.7122 19.7042 18.4 17.6308 18.4H3.7684C1.69505 18.4 0 16.7122 0 14.6426V4.26311C0 1.9183 1.9289 0 4.2794 0H9.83822C10.1883 0 10.521 0.152894 10.7489 0.418598L11.6107 1.42299C12.0423 1.92597 11.9844 2.68356 11.4814 3.11511C10.9784 3.54667 10.2208 3.48877 9.78928 2.9858L9.28666 2.4ZM19 7.94637C19 7.20526 18.3809 6.58894 17.6308 6.58894H2.39999V14.6426C2.39999 15.3844 3.01823 16 3.76839 16H17.6308C18.3812 16 19 15.3841 19 14.6426V7.94637Z" fill="white"/>
</svg>
