<svg width="21" height="15" viewBox="0 0 21 15" fill="none" xmlns="http://www.w3.org/2000/svg">
<path fill-rule="evenodd" clip-rule="evenodd" d="M0.62909 4.87097C6.01833 -0.518268 14.756 -0.518268 20.1452 4.87097C20.4577 5.18339 20.4577 5.68992 20.1452 6.00234C19.8328 6.31476 19.3263 6.31476 19.0139 6.00234C14.2495 1.23794 6.52486 1.23794 1.76046 6.00234C1.44804 6.31476 0.941509 6.31476 0.62909 6.00234C0.31667 5.68992 0.316671 5.18339 0.62909 4.87097ZM11.562 13.8046C11.562 14.4538 11.0357 14.9801 10.3865 14.9801C9.73725 14.9801 9.21096 14.4538 9.21096 13.8046C9.21096 13.1554 9.73725 12.6291 10.3865 12.6291C11.0357 12.6291 11.562 13.1554 11.562 13.8046ZM17.3168 7.69939C13.4897 3.87226 7.28466 3.87226 3.45752 7.69939C3.1451 8.01181 3.1451 8.51835 3.45752 8.83076C3.76994 9.14318 4.27647 9.14318 4.58889 8.83076C7.79119 5.62847 12.9831 5.62847 16.1854 8.83076C16.4979 9.14318 17.0044 9.14318 17.3168 8.83076C17.6292 8.51835 17.6292 8.01181 17.3168 7.69939ZM6.28594 10.5278C8.55098 8.26278 12.2233 8.26278 14.4884 10.5278C14.8008 10.8402 14.8008 11.3468 14.4884 11.6592C14.176 11.9716 13.6694 11.9716 13.357 11.6592C11.7168 10.019 9.05752 10.019 7.41731 11.6592C7.1049 11.9716 6.59836 11.9716 6.28594 11.6592C5.97352 11.3468 5.97352 10.8402 6.28594 10.5278Z" fill="white"/>
</svg>
