<svg width="18" height="19" viewBox="0 0 18 19" fill="none" xmlns="http://www.w3.org/2000/svg">
<path fill-rule="evenodd" clip-rule="evenodd" d="M11.8297 2.24178C9.12344 -0.464434 4.73626 -0.464134 2.02947 2.24265C-0.676529 4.94865 -0.67648 9.33583 2.02956 12.0419L4.43904 14.4514C4.02177 15.4359 4.21456 16.6176 5.01728 17.4203C6.07347 18.4765 7.78524 18.4762 8.84118 17.4203L10.8875 15.3759C12.0755 15.6576 13.3378 15.3149 14.2198 14.4329C15.0766 13.5761 15.425 12.361 15.1856 11.2037L15.1624 11.1001L17.2076 9.05388C18.2635 7.99795 18.2638 6.28617 17.2076 5.22999C16.405 4.42745 15.2237 4.23456 14.2393 4.65146L11.8297 2.24178ZM3.46371 10.6077C1.54973 8.69373 1.54969 5.59073 3.46362 3.67681C5.37839 1.76203 8.48139 1.76182 10.3955 3.67593L13.3832 6.66363C13.7545 7.03491 14.342 7.05811 14.7403 6.73324L14.881 6.60744C15.146 6.40142 15.5295 6.42024 15.7734 6.66414C16.0375 6.92818 16.0374 7.35577 15.7735 7.61973L7.40703 15.9862C7.14307 16.2501 6.71548 16.2502 6.45144 15.9861C6.20754 15.7422 6.18872 15.3587 6.39474 15.0937L6.52102 14.9526C6.84589 14.5542 6.82269 13.9667 6.45141 13.5954L3.46371 10.6077Z" fill="white"/>
</svg>


