<svg width="20" height="20" viewBox="0 0 20 20" fill="none" xmlns="http://www.w3.org/2000/svg">
<path fill-rule="evenodd" clip-rule="evenodd" d="M15.3618 13.4384C17.7513 10.2277 17.489 5.66607 14.5749 2.75201C11.3726 -0.450294 6.18068 -0.450294 2.97838 2.75201C-0.223915 5.9543 -0.223915 11.1463 2.97838 14.3486C5.89245 17.2626 10.4541 17.5249 13.6648 15.1354L17.8276 19.2983C18.2963 19.7669 19.0561 19.7669 19.5247 19.2983C19.9933 18.8297 19.9933 18.0699 19.5247 17.6012L15.3618 13.4384ZM12.8779 12.6515C10.6128 14.9165 6.94048 14.9165 4.67544 12.6515C2.4104 10.3865 2.4104 6.7141 4.67544 4.44906C6.94048 2.18402 10.6128 2.18402 12.8779 4.44906C15.1429 6.7141 15.1429 10.3865 12.8779 12.6515Z" fill="white"/>
</svg>
