<svg width="17" height="14" viewBox="0 0 17 14" fill="none" xmlns="http://www.w3.org/2000/svg">
<path fill-rule="evenodd" clip-rule="evenodd" d="M14.8372 12.9046C14.8372 13.3464 15.1953 13.7046 15.6372 13.7046C16.079 13.7046 16.4372 13.3464 16.4372 12.9046V0.904553C16.4372 0.462725 16.079 0.104553 15.6372 0.104553C15.1953 0.104553 14.8372 0.462725 14.8372 0.904553V12.9046ZM11.2122 2.90455V12.9046C11.2122 13.3464 11.5703 13.7046 12.0122 13.7046C12.454 13.7046 12.8122 13.3464 12.8122 12.9046V2.90455C12.8122 2.46273 12.454 2.10455 12.0122 2.10455C11.5703 2.10455 11.2122 2.46273 11.2122 2.90455ZM7.58716 12.9046V4.90455C7.58716 4.46273 7.94533 4.10455 8.38716 4.10455C8.82899 4.10455 9.18716 4.46273 9.18716 4.90455V12.9046C9.18716 13.3464 8.82899 13.7046 8.38716 13.7046C7.94533 13.7046 7.58716 13.3464 7.58716 12.9046ZM3.96216 6.90455V12.9046C3.96216 13.3464 4.32033 13.7046 4.76216 13.7046C5.20399 13.7046 5.56216 13.3464 5.56216 12.9046V6.90455C5.56216 6.46273 5.20399 6.10455 4.76216 6.10455C4.32033 6.10455 3.96216 6.46273 3.96216 6.90455ZM0.337158 12.9046V8.90455C0.337158 8.46273 0.69533 8.10455 1.13716 8.10455C1.57899 8.10455 1.93716 8.46273 1.93716 8.90455V12.9046C1.93716 13.3464 1.57899 13.7046 1.13716 13.7046C0.69533 13.7046 0.337158 13.3464 0.337158 12.9046Z" fill="white"/>
</svg>
