<svg width="22" height="22" viewBox="0 0 22 22" fill="none" xmlns="http://www.w3.org/2000/svg">
<path fill-rule="evenodd" clip-rule="evenodd" d="M20.9611 12.1796L19.9771 11.4541C19.9861 11.3027 19.99 11.1513 19.99 11C19.99 10.8486 19.9861 10.6972 19.9771 10.5459L20.9611 9.82028C22.0178 9.04001 22.3143 7.5654 21.6377 6.46777L20.4129 4.46874C19.7622 3.41111 18.3752 2.95019 17.1921 3.39941L15.9553 3.86719C15.6489 3.67481 15.3305 3.50099 15.0022 3.34474L14.8271 2.18848C14.635 0.940428 13.5157 0 12.2252 0H9.77461C8.48018 0 7.36183 0.943353 7.17276 2.19433L6.99765 3.34474C6.66831 3.50099 6.35091 3.67481 6.04447 3.86819L4.80873 3.39944C3.61974 2.94924 2.23565 3.41116 1.58716 4.46974L0.361371 6.46682C-0.314194 7.56938 -0.0167192 9.04308 1.03793 9.81933L2.02096 10.5459C2.013 10.6973 2.00902 10.8486 2.00902 11C2.00902 11.1514 2.013 11.3027 2.02096 11.4541L1.03892 12.1787C-0.0167192 12.958 -0.31422 14.4307 0.361346 15.5322L1.58813 17.5312C2.23685 18.5889 3.62382 19.0478 4.80791 18.5996L6.04465 18.1318C6.35109 18.3252 6.66849 18.5 6.99782 18.6553L7.17294 19.8057C7.36198 21.0566 8.48031 22 9.77479 22H12.2254C13.5158 22 14.6342 21.0586 14.8283 19.8057L15.0024 18.6553C15.3307 18.5 15.6491 18.3252 15.9555 18.1328L17.1923 18.5996C18.3803 19.0518 19.7643 18.5889 20.4131 17.5303L21.6359 15.5361C22.3145 14.4336 22.0178 12.9599 20.9611 12.1796ZM17.9525 10.9999C17.9525 11.4628 17.9018 11.915 17.8042 12.3505L19.7374 13.7782C19.9653 13.9472 20.0339 14.2694 19.8917 14.5009L18.6669 16.499C18.5246 16.7304 18.1923 16.8349 17.9246 16.7324L15.6432 15.872C14.9318 16.4726 14.089 16.9374 13.1598 17.2236L12.8115 19.5116C12.7707 19.7821 12.5081 19.9999 12.2255 19.9999H9.77491C9.48935 19.9999 9.22868 19.7812 9.18788 19.5116L8.84063 17.2236C7.91135 16.9374 7.06763 16.4726 6.35622 15.872L4.07678 16.7324C3.80615 16.8349 3.47482 16.7294 3.33353 16.499L2.10775 14.5009C1.96547 14.2685 2.03611 13.9472 2.26395 13.7782L4.19516 12.3505C4.09766 11.915 4.04691 11.4628 4.04691 10.9999C4.04691 10.5371 4.09766 10.0849 4.19516 9.64838L2.26395 8.22163C2.03611 8.05366 1.96546 7.73043 2.10775 7.49898L3.33353 5.50092C3.47482 5.26947 3.80615 5.16497 4.07678 5.26654L6.35622 6.12787C7.06763 5.52729 7.91135 5.06147 8.84063 4.77632L9.18788 2.48823C9.22867 2.21871 9.48935 1.99996 9.77491 1.99996H12.2255C12.5081 1.99996 12.7707 2.21773 12.8115 2.48823L13.1598 4.77632C14.089 5.06147 14.9318 5.52729 15.6432 6.12787L17.9246 5.26654C18.1923 5.16498 18.5246 5.2685 18.6669 5.50092L19.8917 7.49898C20.0339 7.72945 19.9653 8.05268 19.7374 8.22163L17.8042 9.64838C17.9018 10.0849 17.9525 10.5371 17.9525 10.9999ZM10.8983 6.99992C8.64773 6.99992 6.82297 8.79096 6.82297 10.9999C6.82297 13.2089 8.64773 15 10.8983 15C13.1489 15 14.9737 13.2089 14.9737 10.9999C14.9737 8.79096 13.1489 6.99992 10.8983 6.99992ZM10.8983 12.9999C9.775 12.9999 8.86064 12.1025 8.86064 10.9999C8.86064 9.89738 9.775 8.99993 10.8983 8.99993C12.0226 8.99993 12.936 9.89738 12.936 10.9999C12.936 12.1025 12.0226 12.9999 10.8983 12.9999Z" fill="white"/>
</svg>
