<svg width="17" height="17" viewBox="0 0 17 17" fill="none" xmlns="http://www.w3.org/2000/svg">
<path fill-rule="evenodd" clip-rule="evenodd" d="M3.96729 1.98361C3.96729 3.07996 3.07921 3.96802 1.98364 3.96802C0.888078 3.96802 0 3.07996 0 1.98361C0 0.888869 0.888078 0 1.98364 0C3.07921 0 3.96729 0.888869 3.96729 1.98361ZM8.49995 3.96802C9.59552 3.96802 10.4836 3.07996 10.4836 1.98361C10.4836 0.888869 9.59552 0 8.49995 0C7.40439 0 6.5155 0.888869 6.5155 1.98361C6.5155 3.07996 7.40439 3.96802 8.49995 3.96802ZM3.96736 8.5002C3.96736 7.40465 3.07929 6.51579 1.98372 6.51579C0.888155 6.51579 7.62939e-05 7.40465 7.62939e-05 8.5002C7.62939e-05 9.59574 0.888155 10.4846 1.98372 10.4846C3.07929 10.4846 3.96736 9.59574 3.96736 8.5002ZM10.4837 8.5002C10.4837 7.40465 9.59561 6.51579 8.50005 6.51579C7.40448 6.51579 6.51559 7.40465 6.51559 8.5002C6.51559 9.59574 7.40448 10.4846 8.50005 10.4846C9.59561 10.4846 10.4837 9.59574 10.4837 8.5002ZM15.0164 6.51579C16.1111 6.51579 17 7.40465 17 8.5002C17 9.59574 16.1111 10.4846 15.0164 10.4846C13.9208 10.4846 13.0319 9.59574 13.0319 8.5002C13.0319 7.40465 13.9208 6.51579 15.0164 6.51579ZM16.9999 1.98361C16.9999 3.07996 16.111 3.96802 15.0163 3.96802C13.9207 3.96802 13.0318 3.07996 13.0318 1.98361C13.0318 0.888869 13.9207 0 15.0163 0C16.111 0 16.9999 0.888869 16.9999 1.98361ZM15.0163 17C16.111 17 16.9999 16.1119 16.9999 15.0156C16.9999 13.9209 16.111 13.032 15.0163 13.032C13.9207 13.032 13.0318 13.9209 13.0318 15.0156C13.0318 16.1119 13.9207 17 15.0163 17ZM1.98364 17C3.07921 17 3.96729 16.1119 3.96729 15.0156C3.96729 13.9209 3.07921 13.032 1.98364 13.032C0.888078 13.032 0 13.9209 0 15.0156C0 16.1119 0.888078 17 1.98364 17ZM10.4836 15.0156C10.4836 16.1119 9.59552 17 8.49995 17C7.40439 17 6.5155 16.1119 6.5155 15.0156C6.5155 13.9209 7.40439 13.032 8.49995 13.032C9.59552 13.032 10.4836 13.9209 10.4836 15.0156Z" fill="white"/>
</svg>
