<svg width="70" height="28" viewBox="0 0 70 28" fill="none" xmlns="http://www.w3.org/2000/svg">
<path d="M32.5774 18.0585H31.7981C31.4084 18.0585 31.1746 17.7463 31.1746 17.4341C31.1746 17.1219 31.4863 16.8098 31.7981 16.8098H32.5774C32.9671 16.8098 33.2009 17.1219 33.2009 17.4341C33.2009 17.7463 32.9671 18.0585 32.5774 18.0585Z" fill="white"/>
<path d="M29.3821 18.0585C28.6027 18.0585 27.9793 17.7463 27.4337 17.2C27.1999 16.9659 27.1999 16.4976 27.4337 16.2634C27.6675 16.0293 28.1351 16.0293 28.3689 16.2634C28.6807 16.4976 28.9924 16.7317 29.3821 16.7317C29.7718 16.7317 30.0056 17.0439 30.0056 17.4341C30.0056 17.7463 29.7718 18.0585 29.3821 18.0585ZM27.2778 15.1707C26.8881 15.1707 26.6543 14.8585 26.6543 14.5463V12.8293C26.6543 12.439 26.9661 12.2049 27.2778 12.2049C27.5896 12.2049 27.9013 12.5171 27.9013 12.8293V14.4683C27.9013 14.8585 27.6675 15.1707 27.2778 15.1707ZM40.2153 14.3122C39.8256 14.3122 39.5918 14 39.5918 13.6878V12.0488C39.5918 11.6585 39.9035 11.4244 40.2153 11.4244C40.527 11.4244 40.8388 11.7366 40.8388 12.0488V13.6098C40.8388 14 40.527 14.3122 40.2153 14.3122ZM27.2778 11.0341C26.8881 11.0341 26.6543 10.7219 26.6543 10.4098V8.77073C26.6543 8.38048 26.9661 8.14634 27.2778 8.14634C27.5896 8.14634 27.9013 8.45853 27.9013 8.77073V10.4098C27.9013 10.8 27.6675 11.0341 27.2778 11.0341ZM40.2153 10.1756C39.8256 10.1756 39.5918 9.86341 39.5918 9.55122V7.91219C39.5918 7.52195 39.9035 7.2878 40.2153 7.2878C40.527 7.2878 40.8388 7.59999 40.8388 7.91219V9.55122C40.8388 9.86341 40.527 10.1756 40.2153 10.1756ZM27.2778 6.9756H27.1999C26.8102 6.89755 26.5764 6.58536 26.6543 6.19511C26.7323 5.49267 27.122 4.86828 27.6675 4.39999C27.9793 4.16584 28.3689 4.24389 28.6027 4.47804C28.8366 4.79024 28.8366 5.25853 28.5248 5.49268C28.2131 5.72682 28.0572 6.03902 27.9793 6.42926C27.9013 6.74146 27.5896 6.9756 27.2778 6.9756ZM39.8256 6.19511C39.5918 6.19511 39.358 6.11707 39.28 5.88292C39.0462 5.57072 38.7345 5.33658 38.4227 5.18048C38.0331 5.10243 37.8772 4.71219 37.9551 4.32194C38.0331 3.9317 38.4227 3.7756 38.8124 3.85365C39.5138 4.0878 40.0594 4.47804 40.4491 5.10243C40.605 5.41463 40.527 5.80487 40.2153 6.03902C40.0594 6.11707 39.9815 6.19511 39.8256 6.19511ZM36.1626 5.10243H34.5259C34.1362 5.10243 33.9024 4.79024 33.9024 4.47804C33.9024 4.16584 34.2142 3.85365 34.5259 3.85365H36.1626C36.5523 3.85365 36.7861 4.16584 36.7861 4.47804C36.7861 4.79024 36.4743 5.10243 36.1626 5.10243ZM32.0319 5.10243H30.3953C30.0056 5.10243 29.7718 4.79024 29.7718 4.47804C29.7718 4.16584 30.0835 3.85365 30.3953 3.85365H32.0319C32.4216 3.85365 32.6554 4.16584 32.6554 4.47804C32.6554 4.79024 32.4216 5.10243 32.0319 5.10243Z" fill="white"/>
<g opacity="0.8">
<path fill-rule="evenodd" clip-rule="evenodd" d="M24.3942 17.8244H22.7575C22.5237 17.8244 22.2899 17.5902 22.2899 17.3561C22.2899 17.1219 22.5237 16.8878 22.7575 16.8878H24.3942C24.628 16.8878 24.8618 17.1219 24.8618 17.3561C24.8618 17.5902 24.7059 17.8244 24.3942 17.8244ZM20.3415 17.4341C20.2636 17.4341 20.1856 17.4341 20.1077 17.3561C19.5621 17.0439 19.0945 16.6536 18.7048 16.1073C18.549 15.8732 18.6269 15.639 18.7828 15.4829C19.0166 15.3268 19.2504 15.4049 19.4063 15.561C19.718 15.9512 20.0298 16.2634 20.4974 16.4976C20.7312 16.6536 20.8091 16.8878 20.6533 17.1219C20.7312 17.278 20.5753 17.4341 20.3415 17.4341ZM18.471 14C18.2372 14 18.0034 13.7658 18.0034 13.5317V11.8927C18.0034 11.6585 18.2372 11.4244 18.471 11.4244C18.7048 11.4244 18.9387 11.6585 18.9387 11.8927V13.5317C18.9387 13.7658 18.7048 14 18.471 14ZM18.471 9.8634C18.2372 9.8634 18.0034 9.62925 18.0034 9.39511V7.75608C18.0034 7.52193 18.2372 7.28779 18.471 7.28779C18.7048 7.28779 18.9387 7.52193 18.9387 7.75608V9.39511C18.9387 9.62925 18.7048 9.8634 18.471 9.8634ZM18.9387 5.80486C18.8607 5.80486 18.7048 5.80486 18.6269 5.72681C18.3931 5.57071 18.3931 5.25852 18.549 5.10242C18.9387 4.55608 19.5621 4.16583 20.1856 4.08778C20.4194 4.00974 20.6533 4.24388 20.7312 4.47803C20.8091 4.71218 20.5753 4.94632 20.3415 5.02437C19.8739 5.10242 19.5621 5.33657 19.2504 5.72681C19.2114 5.72681 19.153 5.74632 19.0945 5.76583C19.0361 5.78535 18.9776 5.80486 18.9387 5.80486ZM24.3942 4.94632H22.7575C22.5237 4.94632 22.2899 4.71218 22.2899 4.47803C22.2899 4.24388 22.5237 4.00974 22.7575 4.00974H24.3942C24.628 4.00974 24.8618 4.24388 24.8618 4.47803C24.8618 4.71218 24.7059 4.94632 24.3942 4.94632ZM27.6676 17.8244H26.8882C26.6544 17.8244 26.4206 17.5902 26.4206 17.3561C26.4206 17.1219 26.6544 16.8878 26.8882 16.8878H27.6676C27.9014 16.8878 28.1352 17.1219 28.1352 17.3561C28.1352 17.5902 27.9793 17.8244 27.6676 17.8244ZM26.8882 4.94632H27.6676C27.9793 4.94632 28.1352 4.71218 28.1352 4.47803C28.1352 4.24388 27.9014 4.00974 27.6676 4.00974H26.8882C26.6544 4.00974 26.4206 4.24388 26.4206 4.47803C26.4206 4.71218 26.6544 4.94632 26.8882 4.94632Z" fill="white"/>
</g>
<g opacity="0.6">
<path fill-rule="evenodd" clip-rule="evenodd" d="M15.6653 17.8244H14.0286C13.7948 17.8244 13.561 17.5902 13.561 17.3561C13.561 17.1219 13.7948 16.8878 14.0286 16.8878H15.6653C15.8991 16.8878 16.1329 17.1219 16.1329 17.3561C16.1329 17.5902 15.8991 17.8244 15.6653 17.8244ZM11.6126 17.4341C11.5346 17.4341 11.4567 17.4341 11.3788 17.3561C10.8332 17.0439 10.3656 16.6536 9.9759 16.1073C9.82002 15.8732 9.89796 15.639 10.0538 15.4829C10.2876 15.3268 10.5215 15.4049 10.6773 15.561C10.9891 15.9512 11.3008 16.2634 11.7684 16.4976C12.0022 16.6536 12.0802 16.8878 11.9243 17.1219C11.9243 17.278 11.7684 17.4341 11.6126 17.4341ZM9.66415 14C9.43034 14 9.19653 13.7658 9.19653 13.5317V11.8927C9.19653 11.6585 9.43034 11.4244 9.66415 11.4244C9.89796 11.4244 10.1318 11.6585 10.1318 11.8927V13.5317C10.1318 13.7658 9.89796 14 9.66415 14ZM9.66415 9.8634C9.43034 9.8634 9.19653 9.62925 9.19653 9.39511V7.75608C9.19653 7.52193 9.43034 7.28779 9.66415 7.28779C9.89796 7.28779 10.1318 7.52193 10.1318 7.75608V9.39511C10.1318 9.62925 9.89796 9.8634 9.66415 9.8634ZM10.1318 5.80486C10.0538 5.80486 9.89796 5.80486 9.82002 5.72681C9.58622 5.57071 9.58622 5.25852 9.74209 5.10242C10.1318 4.55608 10.7553 4.16583 11.3788 4.08778C11.6126 4.00974 11.8464 4.24388 11.9243 4.47803C12.0022 4.71218 11.7684 4.94632 11.5346 5.02437C11.067 5.10242 10.7553 5.33657 10.4435 5.72681C10.4112 5.72681 10.379 5.7402 10.3411 5.75589C10.2876 5.77808 10.2231 5.80486 10.1318 5.80486ZM15.5873 4.94632H13.9507C13.7168 4.94632 13.483 4.71218 13.483 4.47803C13.483 4.24388 13.7168 4.00974 13.9507 4.00974H15.5873C15.8211 4.00974 16.0549 4.24388 16.0549 4.47803C16.0549 4.71218 15.8991 4.94632 15.5873 4.94632ZM18.8607 17.8244H18.0814C17.8475 17.8244 17.6137 17.5902 17.6137 17.3561C17.6137 17.1219 17.8475 16.8878 18.0814 16.8878H18.8607C19.0945 16.8878 19.3283 17.1219 19.3283 17.3561C19.3283 17.5902 19.1725 17.8244 18.8607 17.8244ZM18.0814 4.94632H18.8607C19.1725 4.94632 19.3283 4.71218 19.3283 4.47803C19.3283 4.24388 19.0945 4.00974 18.8607 4.00974H18.0814C17.8475 4.00974 17.6137 4.24388 17.6137 4.47803C17.6137 4.71218 17.8475 4.94632 18.0814 4.94632Z" fill="white"/>
</g>
<path opacity="0.4" fill-rule="evenodd" clip-rule="evenodd" d="M6.46872 17.8248H4.75412C4.52031 17.8248 4.2865 17.5906 4.2865 17.3565C4.2865 17.1223 4.52031 16.8882 4.75412 16.8882H6.39079C6.6246 16.8882 6.85841 17.1223 6.85841 17.3565C6.85841 17.5906 6.70253 17.8248 6.46872 17.8248ZM2.41603 17.4345C2.33809 17.4345 2.26016 17.4345 2.18222 17.3565C1.63666 17.0443 1.16905 16.654 0.779364 16.1077C0.623491 15.8735 0.701428 15.6394 0.857301 15.4833C1.09111 15.3272 1.32492 15.4053 1.48079 15.5614C1.79254 15.9516 2.10428 16.2638 2.5719 16.4979C2.80571 16.654 2.88365 16.8882 2.72777 17.1223C2.72777 17.2784 2.5719 17.4345 2.41603 17.4345ZM0.467619 14.0004C0.233809 14.0004 0 13.7662 0 13.5321V11.8931C0 11.6589 0.233809 11.4248 0.467619 11.4248C0.701428 11.4248 0.935237 11.6589 0.935237 11.8931V13.5321C0.935237 13.7662 0.701428 14.0004 0.467619 14.0004ZM0.467619 9.86379C0.233809 9.86379 0 9.62964 0 9.39549V7.75647C0 7.52232 0.233809 7.28817 0.467619 7.28817C0.701428 7.28817 0.935237 7.52232 0.935237 7.75647V9.39549C0.935237 9.62964 0.701428 9.86379 0.467619 9.86379ZM0.935237 5.80525C0.779364 5.80525 0.701428 5.80524 0.623491 5.7272C0.389682 5.5711 0.389682 5.2589 0.545555 5.02476C0.935237 4.47841 1.55873 4.16622 2.18222 4.01012C2.41603 3.93207 2.64984 4.16622 2.72777 4.40037C2.80571 4.63451 2.64984 4.86866 2.33809 4.94671C1.94841 5.02476 1.55873 5.2589 1.32492 5.64915C1.28315 5.67006 1.24698 5.69097 1.21341 5.71039C1.12168 5.76342 1.04934 5.80525 0.935237 5.80525ZM6.39079 4.94671H4.75412C4.52031 4.94671 4.2865 4.71256 4.2865 4.47841C4.2865 4.24427 4.52031 4.01012 4.75412 4.01012H6.39079C6.6246 4.01012 6.85841 4.24427 6.85841 4.47841C6.85841 4.71256 6.70253 4.94671 6.39079 4.94671ZM9.66416 17.8243H8.8848C8.65099 17.8243 8.41718 17.5902 8.41718 17.356C8.41718 17.1219 8.65099 16.8878 8.8848 16.8878H9.66416C9.89797 16.8878 10.1318 17.1219 10.1318 17.356C10.1318 17.5902 9.97591 17.8243 9.66416 17.8243ZM8.8848 4.94632H9.66416C9.97591 4.94632 10.1318 4.71218 10.1318 4.47803C10.1318 4.24388 9.89797 4.00974 9.66416 4.00974H8.8848C8.65099 4.00974 8.41718 4.24388 8.41718 4.47803C8.41718 4.71218 8.65099 4.94632 8.8848 4.94632Z" fill="white"/>
<path d="M42.8648 17.0732C42.631 17.0732 42.3972 17.1512 42.1634 17.2293C41.9296 16.4488 41.2282 15.9024 40.4488 15.9024C40.215 15.9024 39.9812 15.9805 39.7474 16.0585C39.5136 15.2781 38.8121 14.7317 38.0328 14.7317C37.799 14.7317 37.5651 14.8098 37.4093 14.8098V13.4829C37.4093 12.4683 36.6299 11.6878 35.6167 11.6878C34.6036 11.6878 33.8242 12.4683 33.8242 13.4829V20.1951L33.2007 19.5707C32.4993 18.8683 31.3302 18.8683 30.6288 19.5707C30.3171 19.8829 30.0833 20.3512 30.0833 20.8195C30.0833 21.2878 30.2391 21.7561 30.6288 22.0683L34.8374 26.2829C35.9285 27.3756 37.4093 28 38.8901 28C41.8517 28 44.3456 25.6585 44.5794 22.6927C44.5794 22.6146 44.5794 22.6146 44.5794 22.5366V18.8683C44.6574 17.8537 43.8001 17.0732 42.8648 17.0732ZM43.4883 22.3805C43.4883 22.4585 43.4883 22.4585 43.4883 22.3805C43.3324 24.8781 41.3061 26.7512 38.8901 26.7512C37.6431 26.7512 36.474 26.2829 35.6167 25.3464L31.4082 21.1317C31.2523 20.9756 31.2523 20.8195 31.2523 20.6634C31.2523 20.5073 31.3302 20.3512 31.4082 20.1951C31.564 20.039 31.7199 20.039 31.8758 20.039C32.0317 20.039 32.1875 20.1171 32.3434 20.1951L33.9801 21.8342C34.1359 21.9903 34.3698 22.0683 34.6036 21.9903C34.8374 21.9122 34.9932 21.6781 34.9932 21.4439V13.4049C34.9932 13.0927 35.305 12.7805 35.6167 12.7805C35.9285 12.7805 36.2402 13.0927 36.2402 13.4049V18.8683C36.2402 19.1805 36.474 19.4146 36.7858 19.4146C37.0975 19.4146 37.3313 19.1805 37.3313 18.8683V16.4488C37.3313 16.1366 37.6431 15.8244 37.9548 15.8244C38.2666 15.8244 38.5783 16.1366 38.5783 16.4488V18.8683C38.5783 19.1805 38.8121 19.4146 39.1239 19.4146C39.4356 19.4146 39.6694 19.1805 39.6694 18.8683V17.6195C39.6694 17.3073 39.9812 16.9951 40.2929 16.9951C40.6047 16.9951 40.9164 17.3073 40.9164 17.6195V19.4146C40.9164 19.7268 41.1502 19.961 41.462 19.961C41.7737 19.961 42.0075 19.7268 42.0075 19.4146V18.7903C42.0075 18.4781 42.3193 18.1659 42.631 18.1659C42.9428 18.1659 43.2545 18.4781 43.2545 18.7903L43.4883 22.3805Z" fill="white"/>
<path fill-rule="evenodd" clip-rule="evenodd" d="M59.6923 14.4462L60.295 15.1359L64.083 11.601L60.295 8.06613L59.6923 8.66965L62.7917 11.601L59.6923 14.4462ZM46.6065 12.0321H47.1231C47.3813 12.0321 47.5535 11.8597 47.5535 11.601C47.5535 11.3424 47.3813 11.1699 47.1231 11.1699H46.6065C46.3482 11.1699 46.176 11.3424 46.176 11.601C46.176 11.8597 46.3482 12.0321 46.6065 12.0321ZM44.4053 12.0321H44.9219C45.1802 12.0321 45.3523 11.8597 45.3523 11.601C45.3523 11.3424 45.1802 11.1699 44.9219 11.1699H44.4053C44.147 11.1699 43.9749 11.3424 43.9749 11.601C43.9749 11.8597 44.147 12.0321 44.4053 12.0321ZM53.6881 12.0321H53.1715C52.9133 12.0321 52.7411 11.8597 52.7411 11.601C52.7411 11.3424 52.9133 11.1699 53.1715 11.1699H53.6881C53.9464 11.1699 54.1186 11.3424 54.1186 11.601C54.1186 11.8597 53.9464 12.0321 53.6881 12.0321ZM51.4869 12.0321H50.9703C50.7121 12.0321 50.5399 11.8597 50.5399 11.601C50.5399 11.3424 50.7121 11.1699 50.9703 11.1699H51.4869C51.7452 11.1699 51.9174 11.3424 51.9174 11.601C51.9174 11.8597 51.7452 12.0321 51.4869 12.0321ZM49.3718 12.0321H48.8552C48.597 12.0321 48.4248 11.8597 48.4248 11.601C48.4248 11.3424 48.597 11.1699 48.8552 11.1699H49.3718C49.6301 11.1699 49.8023 11.3424 49.8023 11.601C49.8023 11.8597 49.6301 12.0321 49.3718 12.0321ZM60.1931 12.0321H59.6765C59.4182 12.0321 59.246 11.8597 59.246 11.601C59.246 11.3424 59.4182 11.1699 59.6765 11.1699H60.1931C60.4513 11.1699 60.6235 11.3424 60.6235 11.601C60.6235 11.8597 60.4513 12.0321 60.1931 12.0321ZM57.9919 12.0321H57.4753C57.217 12.0321 57.0448 11.8597 57.0448 11.601C57.0448 11.3424 57.217 11.1699 57.4753 11.1699H57.9919C58.2501 11.1699 58.4223 11.3424 58.4223 11.601C58.4223 11.8597 58.2501 12.0321 57.9919 12.0321ZM55.8768 12.0321H55.3602C55.1019 12.0321 54.9297 11.8597 54.9297 11.601C54.9297 11.3424 55.1019 11.1699 55.3602 11.1699H55.8768C56.135 11.1699 56.3072 11.3424 56.3072 11.601C56.3072 11.8597 56.135 12.0321 55.8768 12.0321Z" fill="white"/>
<path opacity="0.7" fill-rule="evenodd" clip-rule="evenodd" d="M57.2962 26.6927H65.4016C67.8955 26.6927 69.9219 24.6634 69.9998 22.2439V4.52683C69.9998 2.02927 67.9735 0 65.4795 0H57.2962C54.8022 0 52.7759 2.02927 52.7759 4.52683V9.40283H54.4125V4.44878C54.4125 2.88781 55.6595 1.56098 57.2962 1.56098V1.63903H65.4795C67.0382 1.63903 68.3632 2.88781 68.3632 4.52683V22.1659C68.3632 23.7269 67.1162 25.0537 65.4795 25.0537H57.2962C55.7375 25.0537 54.4125 23.8049 54.4125 22.1659V13.6879H52.7759V22.1659C52.7759 24.6634 54.8022 26.6927 57.2962 26.6927Z" fill="white"/>
</svg>
