<svg width="12" height="17" viewBox="0 0 12 17" fill="none" xmlns="http://www.w3.org/2000/svg">
<path fill-rule="evenodd" clip-rule="evenodd" d="M10.3961 0.98877C9.84384 0.98877 9.39612 1.43648 9.39612 1.98877V15.9888C9.39612 16.5411 9.84384 16.9888 10.3961 16.9888C10.9484 16.9888 11.3961 16.5411 11.3961 15.9888V1.98877C11.3961 1.43648 10.9484 0.98877 10.3961 0.98877ZM0.906325 12.7872L4.70477 8.98877L0.906555 5.19055C0.504367 4.78836 0.502892 4.13674 0.903255 3.73274C1.30652 3.32581 1.96389 3.3247 2.36852 3.73026L7.55624 8.92989C7.58871 8.96243 7.5887 9.01511 7.55624 9.04765L2.36804 14.2473C1.96342 14.6528 1.30607 14.6517 0.902901 14.2447C0.502714 13.8407 0.504244 13.1893 0.906325 12.7872Z" fill="white"/>
</svg>
