<svg width="20" height="20" viewBox="0 0 20 20" fill="none" xmlns="http://www.w3.org/2000/svg">
<path d="M2.4 18.2V4.97663C2.4 3.56132 3.55758 2.4 4.96448 2.4H14.4347C15.8423 2.4 17 3.56124 17 4.97663V11.838C17 13.2541 15.8424 14.4154 14.4347 14.4154H5.70168C5.03894 14.4154 4.50168 14.9527 4.50168 15.6154C4.50168 16.2782 5.03894 16.8154 5.70168 16.8154H14.4347C17.1696 16.8154 19.4 14.5779 19.4 11.838V4.97663C19.4 2.2374 17.1695 0 14.4347 0H4.96448C2.23037 0 0 2.23757 0 4.97663V18.2C0 18.8627 0.537258 19.4 1.2 19.4C1.86274 19.4 2.4 18.8627 2.4 18.2Z" fill="white"/>
</svg>
