<svg width="22" height="26" viewBox="0 0 22 26" fill="none" xmlns="http://www.w3.org/2000/svg">
<path d="M3.48455 16.3497L7.48606 20.3512C8.32556 21.1907 9.68665 21.1907 10.5261 20.3512L18.8353 12.0421C19.6748 11.2026 19.6748 9.8415 18.8353 9.00201L14.8338 5.00051C13.9943 4.16102 12.6332 4.16102 11.7937 5.00051L3.48455 13.3097C2.64505 14.1492 2.64505 15.5102 3.48455 16.3497Z" stroke="white" stroke-width="1.5" stroke-miterlimit="10"/>
<path d="M7.66176 2.43408C6.78374 2.43407 5.91437 2.60763 5.10366 2.94478C4.29294 3.28193 3.55687 3.77602 2.93778 4.39864C2.31869 5.02127 1.82879 5.76013 1.49625 6.57275C1.16372 7.38537 0.995102 8.25571 1.00011 9.13372" stroke="white" stroke-width="0.9" stroke-linecap="round" stroke-linejoin="round"/>
<path d="M6.66658 4.84958L8.66432 2.02389L5.83862 0.0185547" fill="white"/>
<path d="M14.3308 23.566C15.2063 23.567 16.0733 23.3954 16.8824 23.0611C17.6916 22.7268 18.4268 22.2362 19.0462 21.6175C19.6656 20.9989 20.157 20.2641 20.4922 19.4554C20.8275 18.6467 21.0001 17.7798 21.0001 16.9044" stroke="white" stroke-width="0.9" stroke-linecap="round" stroke-linejoin="round"/>
<path d="M15.3337 21.1505L13.3359 23.9838L16.1616 25.9815" fill="white"/>
</svg>



