<svg width="11" height="21" viewBox="0 0 11 21" fill="none" xmlns="http://www.w3.org/2000/svg">
<path d="M5.47458 20.7763C2.95625 20.7763 0.909242 18.7293 0.909304 16.211L0.909305 4.03717C0.909305 2.2418 2.37504 0.776064 4.17044 0.776034C5.96583 0.776003 7.43154 2.24177 7.43157 4.03717L7.43157 16.211C7.43157 17.2835 6.54769 18.1673 5.47519 18.1674C4.4027 18.1675 3.51889 17.2835 3.51882 16.211L3.51882 5.34162C3.51582 5.16689 3.58307 4.99876 3.70617 4.87446C3.82806 4.75016 3.99558 4.67991 4.17032 4.68052C4.34505 4.67992 4.51258 4.75016 4.63447 4.87446C4.75757 4.99876 4.82542 5.16748 4.82241 5.34222L4.82241 16.2116C4.82241 16.5839 5.10223 16.8637 5.47452 16.8637C5.84679 16.8637 6.12661 16.5839 6.12662 16.2116L6.12662 4.03777C6.12662 2.94253 5.26555 2.08146 4.17025 2.0814C3.07495 2.08133 2.21394 2.94246 2.21388 4.03776L2.21388 16.2116C2.21388 18.0298 3.65681 19.4728 5.47501 19.4728C7.29322 19.4728 8.73615 18.0298 8.73614 16.2116L8.73614 5.34222C8.73374 5.16809 8.80099 4.99876 8.92348 4.87506C9.04658 4.75077 9.2135 4.68111 9.38764 4.68112C9.56177 4.68112 9.72989 4.75076 9.85179 4.87506C9.97489 4.99936 10.0421 5.16748 10.0397 5.34162L10.0397 16.211C10.0397 18.7294 7.99285 20.7764 5.47458 20.7763Z" fill="white"/>
</svg>


