<svg width="16" height="16" viewBox="0 0 16 16" fill="none" xmlns="http://www.w3.org/2000/svg">
<path d="M5.31454 1.00006H2.71143C2.25759 1.00006 1.82235 1.18035 1.50144 1.50126C1.18053 1.82216 1.00024 2.25741 1.00024 2.71125V5.31436" stroke="white" stroke-width="1.83" stroke-miterlimit="10" stroke-linecap="round"/>
<path d="M14.9998 5.3143V2.71118C14.9998 2.25735 14.8196 1.8221 14.4987 1.50119C14.1777 1.18028 13.7425 1 13.2887 1H10.6855" stroke="white" stroke-width="1.83" stroke-miterlimit="10" stroke-linecap="round"/>
<path d="M10.6855 15H13.2887C13.7425 15 14.1777 14.8197 14.4987 14.4988C14.8196 14.1779 14.9998 13.7426 14.9998 13.2888V10.6857" stroke="white" stroke-width="1.83" stroke-miterlimit="10" stroke-linecap="round"/>
<path d="M1 10.6857V13.2888C1 13.7426 1.18028 14.1779 1.50119 14.4988C1.8221 14.8197 2.25735 15 2.71118 15H5.3143" stroke="white" stroke-width="1.83" stroke-miterlimit="10" stroke-linecap="round"/>
</svg>
